<svg width="48" height="48" viewBox="0 0 48 48" fill="none" xmlns="http://www.w3.org/2000/svg">
<g clip-path="url(#clip0_3284_5539)">
<rect width="48" height="48" fill="#FFCC05"/>
<path d="M-18.0405 38.9158V8.40405H-1.22154C0.968807 8.40405 2.80725 8.68742 4.29378 9.24801C5.78031 9.80859 6.90885 10.6525 7.69155 11.7737C8.46818 12.8949 8.86257 14.3302 8.86257 16.0736C8.86257 17.552 8.63807 18.7779 8.19515 19.7574C7.78863 20.7307 7.15762 21.5007 6.30211 22.0613C5.44659 22.5911 4.35445 22.9915 3.01355 23.2564V23.4351C4.34839 23.6692 5.46479 24.0572 6.35671 24.587C7.24863 25.0922 7.91605 25.8314 8.35897 26.8047C8.84437 27.778 9.081 29.084 9.081 30.7103C9.081 32.1025 8.8747 33.3099 8.46818 34.3449C8.06166 35.349 7.43065 36.1929 6.57514 36.8706C5.75603 37.5482 4.7003 38.0657 3.40186 38.4229C2.10343 38.7494 0.544088 38.9096 -1.27615 38.9096H-18.0405V38.9158ZM-6.96135 32.1765H-4.95909C-4.06717 32.1765 -3.43616 32.1149 -3.06605 31.9978C-2.69593 31.8808 -2.47143 31.6159 -2.39862 31.197C-2.28941 30.7842 -2.22873 30.1744 -2.22873 29.3797C-2.22873 28.585 -2.28334 27.9752 -2.39862 27.5624C-2.47143 27.1497 -2.69593 26.8663 -3.06605 26.7185C-3.43616 26.5706 -4.06717 26.4967 -4.95909 26.4967H-6.96135V32.1765ZM-6.96135 20.5089H-4.95909C-4.06717 20.5089 -3.43616 20.4473 -3.06605 20.3303C-2.69593 20.1825 -2.47143 19.9176 -2.39862 19.5295C-2.28941 19.1475 -2.22873 18.5808 -2.22873 17.8416C-2.22873 17.0407 -2.28334 16.4493 -2.39862 16.0674C-2.47143 15.6855 -2.69593 15.4329 -3.06605 15.3159C-3.43616 15.1988 -4.06717 15.1372 -4.95909 15.1372H-6.96135V20.5028V20.5089Z" fill="black"/>
<path d="M23.7928 38.9158C21.1515 38.9158 18.9714 38.8014 17.2524 38.5666C15.5275 38.3077 14.156 37.8562 13.1318 37.224C12.1436 36.5859 11.3889 35.6948 10.8798 34.5389C10.4007 33.383 10.0892 31.926 9.94549 30.162C9.80174 28.3679 9.72388 26.2005 9.72388 23.6599C9.72388 21.1193 9.79575 18.9639 9.94549 17.2C10.0892 15.4059 10.4007 13.9369 10.8798 12.7809C11.3949 11.625 12.1436 10.728 13.1318 10.0958C14.156 9.45763 15.5335 9.02416 17.2524 8.79538C18.9774 8.5365 21.1575 8.40405 23.7928 8.40405C26.4281 8.40405 28.6142 8.5365 30.3331 8.79538C32.094 9.02416 33.4835 9.45763 34.5136 10.0958C35.5378 10.734 36.2925 11.625 36.7656 12.7809C37.2448 13.9369 37.5562 15.4119 37.7 17.2C37.8856 18.9639 37.9755 21.1133 37.9755 23.6599C37.9755 26.2066 37.8856 28.3679 37.7 30.162C37.5562 31.926 37.2448 33.383 36.7656 34.5389C36.2865 35.6948 35.5378 36.5919 34.5136 37.224C33.4895 37.8562 32.094 38.3077 30.3331 38.5666C28.6082 38.7954 26.4281 38.9158 23.7928 38.9158ZM23.7928 32.1548C24.3797 32.1548 24.8529 32.1247 25.2242 32.0705C25.6255 32.0103 25.9369 31.8538 26.1585 31.5949C26.3802 31.3059 26.5239 30.8724 26.5958 30.2945C26.7036 29.6864 26.7635 28.8496 26.7635 27.7779C26.7994 26.7063 26.8174 25.3336 26.8174 23.6599C26.8174 21.9862 26.7994 20.6136 26.7635 19.5419C26.7635 18.4703 26.7096 17.6515 26.5958 17.0735C26.5239 16.4655 26.3742 16.032 26.1585 15.7731C25.9369 15.4841 25.6255 15.3095 25.2242 15.2553C24.8589 15.1951 24.3797 15.1711 23.7928 15.1711C23.2058 15.1711 22.7327 15.2012 22.3613 15.2553C21.996 15.3155 21.7025 15.4841 21.4809 15.7731C21.2952 16.032 21.1515 16.4655 21.0437 17.0735C20.9359 17.6515 20.858 18.4763 20.8221 19.5419V27.7779C20.858 28.8496 20.9299 29.6864 21.0437 30.2945C21.1515 30.8724 21.3012 31.3059 21.4809 31.5949C21.7025 31.8538 21.996 32.0163 22.3613 32.0705C22.7267 32.1307 23.2058 32.1548 23.7928 32.1548Z" fill="black"/>
<path d="M36.228 38.9158L45.0682 23.5706L36.3998 8.40405H48.7859L52.5035 17.053H52.9514L56.8899 8.40405H68.8281L60.2149 23.3488L68.9999 38.9158H56.5586L52.6753 29.9095H52.1109L48.1724 38.9158H36.2342H36.228Z" fill="black"/>
</g>
<defs>
<clipPath id="clip0_3284_5539">
<rect width="48" height="48" fill="white"/>
</clipPath>
</defs>
</svg>
